<?xml version="1.0" standalone="no"?>
<!DOCTYPE svg PUBLIC "-//W3C//DTD SVG 20010904//EN"
 "http://www.w3.org/TR/2001/REC-SVG-20010904/DTD/svg10.dtd">
<svg version="1.0" xmlns="http://www.w3.org/2000/svg"
 width="1560.000000pt" height="1560.000000pt" viewBox="0 0 1560.000000 1560.000000"
 preserveAspectRatio="xMidYMid meet">

<g transform="translate(0.000000,1560.000000) scale(0.100000,-0.100000)"
fill="#000000" stroke="none">
<path d="M5560 15590 c-702 -86 -1269 -600 -1420 -1288 -122 -551 63 -1143
479 -1535 225 -212 480 -344 808 -419 97 -22 109 -22 1026 -25 l927 -4 0 887
c0 971 -1 986 -60 1198 -79 282 -228 527 -450 739 -232 223 -507 365 -826 427
-125 24 -365 34 -484 20z"/>
<path d="M9705 15593 c-87 -8 -262 -46 -362 -78 -227 -75 -434 -200 -613 -372
-222 -212 -371 -457 -450 -740 -64 -227 -61 -95 -58 -2543 l3 -2225 23 -99
c75 -332 225 -608 452 -836 228 -227 508 -379 836 -452 85 -19 129 -22 319
-22 190 0 234 3 320 22 592 129 1050 534 1235 1091 46 138 65 228 80 376 8 78
10 736 8 2270 -5 2389 1 2196 -68 2432 -218 749 -947 1246 -1725 1176z"/>
<path d="M1476 11489 c-952 -100 -1626 -1001 -1446 -1933 62 -318 204 -594
427 -826 212 -222 457 -371 740 -450 227 -64 95 -61 2543 -58 l2225 3 99 23
c332 75 608 225 836 452 227 228 379 508 452 836 19 85 22 129 22 319 0 190
-3 234 -22 320 -45 208 -128 410 -232 570 -278 424 -712 688 -1222 744 -117
13 -4300 13 -4422 0z"/>
<path d="M13795 11490 c-526 -60 -986 -356 -1250 -805 -89 -150 -152 -314
-197 -512 -22 -97 -22 -109 -25 -1025 l-4 -928 887 0 c971 0 986 1 1198 60
515 145 944 555 1110 1062 314 957 -295 1963 -1289 2133 -113 19 -325 27 -430
15z"/>
<path d="M1395 7364 c-604 -94 -1121 -530 -1309 -1106 -304 -928 257 -1908
1212 -2118 551 -122 1143 63 1535 479 212 225 344 480 419 808 22 97 22 109
25 1026 l4 927 -898 -1 c-715 -1 -916 -4 -988 -15z"/>
<path d="M5495 7365 c-610 -99 -1113 -524 -1305 -1104 -46 -138 -65 -228 -80
-376 -8 -78 -10 -736 -8 -2270 5 -2389 -1 -2196 68 -2432 235 -806 1056 -1311
1874 -1153 318 62 594 204 826 427 222 212 371 457 450 740 64 227 61 95 58
2543 l-3 2225 -23 99 c-75 332 -225 608 -452 836 -228 228 -513 381 -836 451
-130 28 -434 35 -569 14z"/>
<path d="M9665 7373 c-182 -23 -387 -88 -553 -173 -445 -228 -752 -633 -864
-1136 -19 -85 -22 -129 -22 -319 0 -190 3 -234 22 -320 129 -592 534 -1050
1091 -1235 138 -46 228 -65 376 -80 78 -8 736 -10 2270 -8 2389 5 2196 -1
2432 68 806 235 1311 1056 1153 1874 -62 318 -204 594 -427 826 -212 222 -457
371 -739 450 -226 63 -95 60 -2510 59 -1210 -1 -2212 -4 -2229 -6z"/>
<path d="M8220 2394 c0 -971 1 -986 60 -1198 145 -515 555 -944 1062 -1110
928 -304 1908 257 2118 1212 122 551 -63 1143 -479 1535 -225 212 -480 344
-808 419 -97 22 -109 22 -1025 25 l-928 4 0 -887z"/>
</g>
</svg>
