<svg id="Layer_1" data-name="Layer 1" xmlns="http://www.w3.org/2000/svg" viewBox="0 0 173.57 121.19"><title>yt-isotype-k</title><path d="M170,18.87A21.77,21.77,0,0,0,154.7,3.62C141.12.05,86.78.05,86.78.05S32.45.05,18.87,3.62a21.73,21.73,0,0,0-15.3,15.3C0,32.45,0,60.62,0,60.62s0,28.31,3.57,41.75a21.73,21.73,0,0,0,15.3,15.3c13.58,3.57,67.91,3.57,67.91,3.57s54.34,0,67.92-3.57a21.76,21.76,0,0,0,15.3-15.3c3.57-13.58,3.57-41.75,3.57-41.75S173.57,32.45,170,18.87ZM69.3,86.79V34.62l45.18,26.16Z" transform="translate(0 -0.05)"/></svg>