<svg id="Layer_1" data-name="Layer 1" xmlns="http://www.w3.org/2000/svg" viewBox="0 0 140.99 101.46"><defs><style>.cls-1{fill:#7788c4;}</style></defs><title>discord-isotype</title><path class="cls-1" d="M303.25,457l2.54-.82a44,44,0,0,0,10.48-5.15,35.49,35.49,0,0,0,6.38-5.41c.75-.81,1.42-1.71,2.12-2.57.06-.08.11-.17.2-.31a1.06,1.06,0,0,0-.52.25,70.51,70.51,0,0,1-7.33,4.16c-1.83.9-3.7,1.72-5.61,2.44-1.76.66-3.49,1.39-5.25,2a70,70,0,0,1-10.54,2.91c-2.26.43-4.54.79-6.82,1.14-1,.16-2,.24-3,.32-1.54.11-3.08.21-4.63.26s-3.21.09-4.82.06-3.29-.13-4.94-.27a86.83,86.83,0,0,1-10.4-1.5,97.17,97.17,0,0,1-9.92-2.62,93.12,93.12,0,0,1-10.72-4.09c-1.52-.7-3-1.46-4.5-2.28s-3.14-1.88-4.71-2.82a.25.25,0,0,0-.24,0l.29.42a31.29,31.29,0,0,0,6.14,6.24,42.48,42.48,0,0,0,12,6.54c.84.3,1.68.57,2.52.86-.16.42-5.72,7.39-8,10-1-.07-2.11-.12-3.18-.22-.88-.07-1.76-.17-2.64-.28a48.61,48.61,0,0,1-7.05-1.41,45.75,45.75,0,0,1-12.29-5.36,41.37,41.37,0,0,1-6.16-4.69,36.05,36.05,0,0,1-4.77-5.33,2.43,2.43,0,0,1-.69-2.14c0-1.52,0-3,.1-4.55.09-1.9.2-3.8.36-5.7s.36-4,.63-5.94c.39-2.8.81-5.58,1.29-8.36.65-3.8,1.5-7.56,2.47-11.29Q213.3,406.2,215,401q1.89-5.82,4.2-11.5c1.47-3.63,3.08-7.21,4.85-10.7a3.54,3.54,0,0,1,1.09-1.28,69.69,69.69,0,0,1,9.85-6,62.46,62.46,0,0,1,14.1-5,49.78,49.78,0,0,1,6.43-1c.82-.07,1.64-.1,2.47-.17a.67.67,0,0,1,.64.31c.28.37.59.71.92,1.11l-.3.13c-2.95.88-5.87,1.84-8.74,2.94-2.51,1-5,2-7.41,3.18a83.19,83.19,0,0,0-8.64,4.74,51.43,51.43,0,0,0-6,4.29l-.27.24a.58.58,0,0,0,0,.14l.86-.42c2.9-1.5,5.84-2.9,8.86-4.12a103.51,103.51,0,0,1,10.3-3.56A80.74,80.74,0,0,1,258.67,372c1.18-.17,2.38-.3,3.56-.45,1.65-.2,3.3-.4,5-.58.87-.1,1.76-.17,2.64-.23,1.21-.09,2.42-.16,3.63-.23.35,0,.69,0,1,0,1.23,0,2.46-.06,3.69-.06s2.32,0,3.47.09c1.57.08,3.14.18,4.71.32s3.05.27,4.56.49c2.19.33,4.38.7,6.55,1.13a96.14,96.14,0,0,1,22.16,7.38c1.62.78,3.21,1.62,4.82,2.43a1.83,1.83,0,0,0,.45.17,2.29,2.29,0,0,0-.21-.23,56.69,56.69,0,0,0-7-5q-3.66-2.24-7.52-4.09a100.12,100.12,0,0,0-10.44-4.32c-1.43-.49-2.87-.95-4.31-1.43l-.3-.12a3.42,3.42,0,0,1,.22-.28c.37-.44.75-.86,1.11-1.3a.84.84,0,0,1,.77-.35c1.16.11,2.33.16,3.5.29a50.29,50.29,0,0,1,5.57,1,62.07,62.07,0,0,1,11.27,3.74,65.84,65.84,0,0,1,10.87,6.09l1.95,1.38a1.51,1.51,0,0,1,.48.58,131.59,131.59,0,0,1,6.26,14.11c.9,2.39,1.77,4.79,2.59,7.2,1.53,4.48,2.83,9,3.95,13.62,1,4,1.84,8.1,2.47,12.21.37,2.39.69,4.78,1,7.17.19,1.53.32,3.07.45,4.61.11,1.36.18,2.72.27,4.08.16,2.23.19,4.47.19,6.71a1.28,1.28,0,0,1-.21.71,30.66,30.66,0,0,1-3.07,3.83,41.48,41.48,0,0,1-7.31,6.18,44.85,44.85,0,0,1-8.41,4.39,49.11,49.11,0,0,1-9.65,2.72,45.57,45.57,0,0,1-4.95.64c-1,.07-2.09.12-3.14.2-.22,0-.29-.13-.39-.24-.6-.71-1.2-1.43-1.78-2.15-1.9-2.33-3.78-4.67-5.67-7A4,4,0,0,1,303.25,457ZM255,437.2a11.76,11.76,0,0,0,3-.39,12.14,12.14,0,0,0,7.47-5.84,14.23,14.23,0,0,0,1.76-9.43,12.88,12.88,0,0,0-4-7.83,11.72,11.72,0,0,0-17.52,1.36,13.91,13.91,0,0,0-2.88,10.16,13.49,13.49,0,0,0,3.57,8A11.7,11.7,0,0,0,255,437.2Zm56.45-13.75c-.05-.53-.1-1.42-.26-2.29a13.19,13.19,0,0,0-4.33-7.81,11.33,11.33,0,0,0-10.06-2.72,11.63,11.63,0,0,0-7.37,4.89A13.9,13.9,0,0,0,287,426.14a13.17,13.17,0,0,0,4.78,8.38,11.22,11.22,0,0,0,8.7,2.59,11.41,11.41,0,0,0,6.91-3.38A14.13,14.13,0,0,0,311.42,423.45Z" transform="translate(-207.1 -365.33)"/></svg>