<svg id="svg" version="1.1" xmlns="http://www.w3.org/2000/svg" xmlns:xlink="http://www.w3.org/1999/xlink" width="400" height="400" viewBox="0, 0, 400,400"><g id="svgg"><path id="path0" d="M246.875 5.154 C 226.411 8.219,212.227 22.880,210.504 42.750 C 210.172 46.578,210.169 147.796,210.500 151.800 C 212.699 178.333,238.971 195.841,264.223 187.602 C 279.507 182.615,290.400 169.164,292.254 152.989 C 292.443 151.338,292.499 134.036,292.439 95.625 L 292.353 40.625 291.806 38.139 C 288.128 21.428,276.011 9.259,259.544 5.735 C 257.188 5.231,248.899 4.851,246.875 5.154 M349.750 107.655 C 330.779 110.022,316.352 123.746,313.383 142.250 C 313.062 144.251,313.002 148.181,313.001 167.188 L 313.000 189.750 333.688 189.748 C 361.219 189.745,363.411 189.512,371.428 185.744 C 399.112 172.730,403.285 134.987,379.125 116.126 C 371.092 109.854,359.323 106.461,349.750 107.655 " stroke="none" fill="#2cb47c" fill-rule="evenodd"></path><path id="path1" d="M247.820 210.510 C 233.627 211.675,220.657 220.696,214.402 233.753 C 202.183 259.261,218.768 289.013,247.011 292.254 C 248.664 292.444,265.926 292.500,304.375 292.439 L 359.375 292.352 361.861 291.805 C 387.968 286.064,401.905 259.474,391.635 235.000 C 385.940 221.431,372.454 211.822,357.250 210.504 C 353.871 210.211,251.398 210.217,247.820 210.510 M210.252 333.688 C 210.255 361.219,210.488 363.411,214.256 371.428 C 226.296 397.040,260.016 403.049,280.219 383.184 C 301.152 362.600,294.267 327.309,267.113 316.008 C 260.014 313.053,259.433 313.002,232.813 313.001 L 210.250 313.000 210.252 333.688 " stroke="none" fill="#ecb42c" fill-rule="evenodd"></path><path id="path2" d="M143.125 5.267 C 127.481 7.371,114.264 18.495,109.432 33.625 C 101.804 57.508,117.357 82.623,142.250 86.617 C 144.251 86.938,148.181 86.998,167.188 86.999 L 189.750 87.000 189.748 66.313 C 189.745 41.565,189.621 39.569,187.697 33.500 C 181.769 14.800,162.587 2.649,143.125 5.267 M41.875 107.665 C 13.909 111.019,-2.504 139.100,8.365 165.000 C 14.060 178.569,27.546 188.178,42.750 189.496 C 46.578 189.828,147.796 189.831,151.800 189.500 C 178.314 187.303,195.835 161.010,187.602 135.777 C 182.648 120.593,169.373 109.766,153.257 107.763 C 151.295 107.520,43.877 107.425,41.875 107.665 " stroke="none" fill="#34c4f3" fill-rule="evenodd"></path><path id="path3" d="M41.000 210.773 C 10.871 214.651,-4.865 248.929,11.939 274.078 C 30.802 302.306,74.200 296.554,84.874 264.410 C 86.923 258.242,86.996 257.130,86.998 232.063 L 87.000 210.500 64.813 210.532 C 52.609 210.549,41.894 210.658,41.000 210.773 M144.250 210.655 C 125.853 212.948,111.694 226.151,108.206 244.269 L 107.656 247.125 107.565 299.875 C 107.453 365.367,107.305 362.814,111.756 371.875 C 129.738 408.475,184.610 398.997,189.254 358.489 C 189.443 356.839,189.500 339.478,189.443 301.000 L 189.360 245.875 188.798 243.428 C 184.947 226.668,173.010 214.747,156.572 211.243 C 154.181 210.733,146.548 210.369,144.250 210.655 " stroke="none" fill="#e41c5c" fill-rule="evenodd"></path><path id="path4" d="M55.063 210.437 C 60.941 210.475,70.559 210.475,76.438 210.437 C 82.316 210.400,77.506 210.369,65.750 210.369 C 53.994 210.369,49.184 210.400,55.063 210.437 M147.688 210.431 C 148.134 210.486,148.866 210.486,149.313 210.431 C 149.759 210.375,149.394 210.330,148.500 210.330 C 147.606 210.330,147.241 210.375,147.688 210.431 M174.750 219.828 C 174.750 219.871,175.116 220.237,175.563 220.641 L 176.375 221.375 175.641 220.563 C 174.956 219.805,174.750 219.635,174.750 219.828 M16.994 222.438 L 14.875 224.625 17.063 222.506 C 18.266 221.340,19.250 220.355,19.250 220.318 C 19.250 220.136,18.963 220.406,16.994 222.438 M119.368 222.563 L 117.625 224.375 119.438 222.632 C 121.121 221.013,121.364 220.750,121.181 220.750 C 121.143 220.750,120.327 221.566,119.368 222.563 M178.750 223.828 C 178.750 223.871,179.116 224.237,179.563 224.641 L 180.375 225.375 179.641 224.563 C 178.956 223.805,178.750 223.635,178.750 223.828 M9.238 233.024 C 8.950 233.588,8.758 234.091,8.810 234.144 C 8.863 234.196,9.150 233.735,9.450 233.120 C 10.131 231.717,9.947 231.634,9.238 233.024 M5.063 248.375 C 5.066 248.925,5.117 249.121,5.177 248.810 C 5.237 248.499,5.234 248.049,5.172 247.810 C 5.109 247.571,5.060 247.825,5.063 248.375 M107.575 249.250 C 107.575 250.006,107.622 250.316,107.679 249.938 C 107.736 249.559,107.736 248.941,107.679 248.563 C 107.622 248.184,107.575 248.494,107.575 249.250 M189.623 302.750 C 189.623 331.831,189.652 343.728,189.687 329.187 C 189.723 314.647,189.723 290.853,189.687 276.312 C 189.652 261.772,189.623 273.669,189.623 302.750 M5.063 254.375 C 5.066 254.925,5.117 255.121,5.177 254.810 C 5.237 254.499,5.234 254.049,5.172 253.810 C 5.109 253.571,5.060 253.825,5.063 254.375 M86.808 255.250 C 86.808 255.731,86.859 255.928,86.922 255.688 C 86.985 255.447,86.985 255.053,86.922 254.813 C 86.859 254.572,86.808 254.769,86.808 255.250 M82.674 269.628 C 82.445 270.108,82.310 270.500,82.373 270.500 C 82.544 270.500,83.303 268.969,83.188 268.855 C 83.134 268.801,82.903 269.149,82.674 269.628 M74.991 280.438 L 73.625 281.875 75.063 280.509 C 76.398 279.239,76.615 279.000,76.429 279.000 C 76.390 279.000,75.743 279.647,74.991 280.438 M43.313 292.429 C 43.691 292.486,44.309 292.486,44.688 292.429 C 45.066 292.372,44.756 292.325,44.000 292.325 C 43.244 292.325,42.934 292.372,43.313 292.429 M47.442 292.431 C 47.891 292.487,48.566 292.486,48.942 292.429 C 49.318 292.372,48.950 292.326,48.125 292.327 C 47.300 292.329,46.993 292.376,47.442 292.431 M107.577 356.125 C 107.579 356.950,107.626 357.257,107.681 356.808 C 107.737 356.359,107.736 355.684,107.679 355.308 C 107.622 354.932,107.576 355.300,107.577 356.125 M177.369 383.063 L 175.375 385.125 177.438 383.131 C 178.572 382.034,179.500 381.106,179.500 381.068 C 179.500 380.886,179.221 381.147,177.369 383.063 M166.750 390.625 C 166.131 390.956,165.714 391.232,165.822 391.239 C 166.088 391.254,168.000 390.272,168.000 390.120 C 168.000 389.954,168.010 389.950,166.750 390.625 M145.190 394.927 C 145.501 394.987,145.951 394.984,146.190 394.922 C 146.429 394.859,146.175 394.810,145.625 394.813 C 145.075 394.816,144.879 394.867,145.190 394.927 M151.190 394.927 C 151.501 394.987,151.951 394.984,152.190 394.922 C 152.429 394.859,152.175 394.810,151.625 394.813 C 151.075 394.816,150.879 394.867,151.190 394.927 " stroke="none" fill="#dc1c5c" fill-rule="evenodd"></path></g></svg>