<svg id="Layer_1" data-name="Layer 1" xmlns="http://www.w3.org/2000/svg" viewBox="0 0 544.61 121.25"><defs><style>.cls-1{fill:red;}</style></defs><title>youtube</title><path class="cls-1" d="M247.7,308.25A21.76,21.76,0,0,0,232.4,293c-13.58-3.57-67.92-3.57-67.92-3.57s-54.33,0-67.91,3.57a21.74,21.74,0,0,0-15.3,15.3C77.7,321.83,77.7,350,77.7,350s0,28.31,3.57,41.75a21.74,21.74,0,0,0,15.3,15.3c13.58,3.57,67.91,3.57,67.91,3.57s54.34,0,67.92-3.57a21.76,21.76,0,0,0,15.3-15.3c3.57-13.58,3.57-41.75,3.57-41.75S251.27,321.83,247.7,308.25ZM147,376.17V324l45.18,26.16Z" transform="translate(-77.7 -289.38)"/><path id="path10" d="M329.77,399.9c-3.43-2.29-5.86-5.86-7.29-10.87-1.43-4.86-2.15-11.44-2.15-19.44v-11c0-8.15.86-14.73,2.43-19.73,1.72-5,4.29-8.58,7.72-10.87s8.15-3.43,13.87-3.43,10.15,1.14,13.59,3.43,5.86,6,7.43,10.87,2.43,11.44,2.43,19.73v11c0,8.15-.71,14.58-2.29,19.59s-4,8.57-7.43,10.86-8.15,3.43-14,3.43c-6.15-.14-10.87-1.28-14.3-3.57ZM349.07,388c1-2.43,1.43-6.57,1.43-12.15V352.14c0-5.43-.43-9.43-1.43-12s-2.57-3.71-5-3.71a5,5,0,0,0-4.86,3.71c-1,2.58-1.43,6.58-1.43,12v23.74c0,5.58.42,9.72,1.43,12.15a5,5,0,0,0,5,3.72c2.14,0,3.86-1.29,4.86-3.72Z" transform="translate(-77.7 -289.38)"/><path id="path12" d="M593.56,369.73v3.86a105.17,105.17,0,0,0,.43,11c.29,2.43.86,4.29,1.86,5.29a5,5,0,0,0,4.29,1.72c2.58,0,4.29-1,5.29-3s1.43-5.29,1.57-10l14.73.85a15.15,15.15,0,0,1,.14,2.72c0,7-1.85,12.3-5.71,15.73s-9.3,5.15-16.3,5.15c-8.44,0-14.3-2.72-17.73-8S577,381.6,577,370.45v-13.3c0-11.44,1.71-19.73,5.29-25s9.58-7.87,18-7.87c5.87,0,10.44,1.15,13.59,3.29s5.29,5.58,6.57,10,1.86,10.87,1.86,18.87v13H593.56Zm2.15-32A11,11,0,0,0,594,343a106.48,106.48,0,0,0-.43,11.16v5.43h12.59v-5.43a110.56,110.56,0,0,0-.43-11.16,9.82,9.82,0,0,0-1.86-5.29,5.17,5.17,0,0,0-4-1.57,5.29,5.29,0,0,0-4.15,1.57Z" transform="translate(-77.7 -289.38)"/><path id="path14" d="M288,368.3l-19.45-70.49h17l6.86,31.89q2.58,11.79,3.86,20.16h.43c.57-4,1.86-10.58,3.86-20l7.15-32h17L305,368.3v33.89H288.16V368.3Z" transform="translate(-77.7 -289.38)"/><path id="path16" d="M423,326v76.21H409.55l-1.43-9.3h-.43c-3.57,7-9.15,10.58-16.44,10.58-5,0-8.72-1.71-11.15-5s-3.58-8.44-3.58-15.58V326h17.16v55.9c0,3.44.43,5.87,1.14,7.3a3.87,3.87,0,0,0,3.72,2.14,7.34,7.34,0,0,0,4.29-1.43,7,7,0,0,0,3-3.43V326Z" transform="translate(-77.7 -289.38)"/><path id="path18" d="M510.92,326v76.21H497.48l-1.43-9.3h-.43c-3.57,7-9.15,10.58-16.44,10.58-5,0-8.72-1.71-11.15-5s-3.58-8.44-3.58-15.58V326h17.16v55.9c0,3.44.43,5.87,1.15,7.3a3.84,3.84,0,0,0,3.71,2.14,7.34,7.34,0,0,0,4.29-1.43,7,7,0,0,0,3-3.43V326Z" transform="translate(-77.7 -289.38)"/><path id="path20" d="M469.6,311.68h-17v90.51H435.86V311.82h-17V298.1H469.6Z" transform="translate(-77.7 -289.38)"/><path id="path22" d="M567.69,338.13c-1-4.86-2.72-8.29-5-10.43s-5.58-3.29-9.58-3.29a15.38,15.38,0,0,0-8.86,2.71,17.5,17.5,0,0,0-6.29,7h-.15V294H521.22V402.19h14.15l1.72-7.15h.43a14.66,14.66,0,0,0,6,6.15,18.59,18.59,0,0,0,8.87,2.28c5.86,0,10-2.71,12.72-8s4.15-13.73,4.15-25v-12c0-8.87-.57-15.45-1.57-20.31Zm-15.73,31a98.6,98.6,0,0,1-.72,13,14.57,14.57,0,0,1-2.28,6.72,5.58,5.58,0,0,1-4.29,2,7,7,0,0,1-3.86-1,8.1,8.1,0,0,1-2.86-3V343.71a11.69,11.69,0,0,1,3-5.15,6.91,6.91,0,0,1,4.57-2,4.64,4.64,0,0,1,4,2c1,1.43,1.57,3.72,2,6.86a115.22,115.22,0,0,1,.57,13.73v10Z" transform="translate(-77.7 -289.38)"/></svg>