<svg id="Layer_5" data-name="Layer 5" xmlns="http://www.w3.org/2000/svg" viewBox="0 0 426.45 450"><defs><style>.cls-1{fill:#bebebe;}.cls-2{fill:#f5f5f5;}.cls-3{fill:#e1e1e1;}</style></defs><title>dom-d-white</title><path class="cls-1" d="M1326.78,1064.73,1440,933.33,1326.78,802.46l53.62-94.13h147.82c124.27,0,225,100.74,225,225s-100.73,225-225,225h-146.5Zm256.77-131.4-116.94,130.36,61.61,0a130.4,130.4,0,1,0,0-260.79l-62.84-.48Z" transform="translate(-1326.78 -708.33)"/><polygon class="cls-2" points="139.84 355.36 54.94 450 173.53 355.4 139.84 355.36"/><polygon class="cls-2" points="173.53 94.39 138.61 94.12 53.62 0 173.53 94.39"/><polyline class="cls-3" points="53.62 0 256.77 225 54.94 450 0 356.4 113.18 225 0 94.12 53.62 0"/></svg>