<svg id="Layer_1" data-name="Layer 1" xmlns="http://www.w3.org/2000/svg" viewBox="0 0 440 424.99"><defs><style>.cls-1{fill:#404041;}.cls-2{fill:#5a000a;}.cls-3{fill:#870014;}</style></defs><title>Dom Logo 1</title><path class="cls-1" d="M150,338.23l79.62-92.44L150,153.72,187.72,87.5h104a158.29,158.29,0,1,1,0,316.57H188.65Zm180.64-92.44L248.37,337.5l43.34,0a91.73,91.73,0,1,0,0-183.46l-44.2-.34Z" transform="translate(-80 -87.5)"/><polygon class="cls-2" points="168.37 249.99 108.65 316.57 192.08 250.02 168.37 249.99"/><polygon class="cls-2" points="192.08 66.4 167.51 66.21 107.72 0 192.08 66.4"/><polyline class="cls-3" points="107.72 0 250.64 158.28 108.65 316.57 70 250.72 149.62 158.28 70 66.21 107.72 0"/><path class="cls-1" d="M174.38,449a16.58,16.58,0,0,0-3.91-3.19A21.41,21.41,0,0,0,159.41,443a25.47,25.47,0,0,0-12.73,3.2,23.26,23.26,0,0,0-8.93,9,30,30,0,0,0,0,27.15,23.26,23.26,0,0,0,8.93,9,25.47,25.47,0,0,0,12.73,3.2,22,22,0,0,0,11.29-2.74A15.83,15.83,0,0,0,175,488v5.72h13.85v-69h-14.5Zm-1.44,27.2a11.84,11.84,0,0,1-4.61,4.79,13,13,0,0,1-6.5,1.63,12.87,12.87,0,0,1-6.42-1.63,11.82,11.82,0,0,1-4.6-4.79,15.36,15.36,0,0,1-1.72-7.43,15,15,0,0,1,1.72-7.44,11.93,11.93,0,0,1,4.6-4.69,12.77,12.77,0,0,1,6.42-1.63,12.94,12.94,0,0,1,6.5,1.63,12,12,0,0,1,4.61,4.69,15,15,0,0,1,1.72,7.44A15.36,15.36,0,0,1,172.94,476.15Z" transform="translate(-80 -87.5)"/><path class="cls-1" d="M240.19,446.27A30,30,0,0,0,226,443a29.44,29.44,0,0,0-14.08,3.3,24.78,24.78,0,0,0-9.71,9.11,25.46,25.46,0,0,0,9.71,35.74A29.12,29.12,0,0,0,226,494.46a29.63,29.63,0,0,0,14.23-3.34A25.22,25.22,0,0,0,250,482a25,25,0,0,0,3.53-13.29A25.2,25.2,0,0,0,250,455.38,24.78,24.78,0,0,0,240.19,446.27Zm-3.12,29.88a11.9,11.9,0,0,1-4.55,4.79,13,13,0,0,1-6.56,1.63,12.86,12.86,0,0,1-6.41-1.63,11.82,11.82,0,0,1-4.6-4.79,15.25,15.25,0,0,1-1.72-7.43,14.94,14.94,0,0,1,1.72-7.44,11.93,11.93,0,0,1,4.6-4.69,13,13,0,0,1,6.51-1.63,12.71,12.71,0,0,1,6.46,1.63,12,12,0,0,1,4.55,4.69,14.94,14.94,0,0,1,1.72,7.44A15.25,15.25,0,0,1,237.07,476.15Z" transform="translate(-80 -87.5)"/><path class="cls-1" d="M337.74,445.34A22.71,22.71,0,0,0,327.19,443a23.23,23.23,0,0,0-12.73,3.48,21.37,21.37,0,0,0-5.27,4.71,15.19,15.19,0,0,0-4.49-4.71A21.26,21.26,0,0,0,292.61,443a22.17,22.17,0,0,0-10.87,2.65,16.82,16.82,0,0,0-4.74,3.82v-5.73H263.15v50h14.5v-25.1a16.82,16.82,0,0,1,1.39-7.39,9.71,9.71,0,0,1,3.9-4.27,11.22,11.22,0,0,1,5.67-1.44,8.87,8.87,0,0,1,7.12,2.88q2.46,2.88,2.46,8.92v26.4h14.5v-25.1a17.3,17.3,0,0,1,1.35-7.39,9.39,9.39,0,0,1,3.85-4.27,11.41,11.41,0,0,1,5.77-1.44,8.61,8.61,0,0,1,6.92,2.88c1.64,1.92,2.47,4.89,2.47,8.92v26.4h14.5V465.09q0-7.62-2.61-12.5A16.75,16.75,0,0,0,337.74,445.34Z" transform="translate(-80 -87.5)"/><rect class="cls-1" x="278.79" y="374.24" width="26.31" height="11.62"/><path class="cls-1" d="M397.09,493.63q0,3.81-1.54,5.57a5.4,5.4,0,0,1-4.32,1.77,10.34,10.34,0,0,1-6.13-1.77l-3.91,10.51a15.83,15.83,0,0,0,5.21,2.09,29.5,29.5,0,0,0,6.5.7q8.93,0,13.81-5.12t4.88-13.85V443.71h-14.5Z" transform="translate(-80 -87.5)"/><path class="cls-1" d="M410.89,422.75a9.75,9.75,0,0,0-6.55-2.18,9.31,9.31,0,0,0-6.6,2.32,7.88,7.88,0,0,0,0,11.53,10.46,10.46,0,0,0,13.2-.05,7.91,7.91,0,0,0,2.51-6A7,7,0,0,0,410.89,422.75Z" transform="translate(-80 -87.5)"/><path class="cls-1" d="M463.87,471.69a11.64,11.64,0,0,0-4.36-4.23,25.54,25.54,0,0,0-5.91-2.37,55.55,55.55,0,0,0-6.41-1.3q-3.26-.46-5.95-.93a13.17,13.17,0,0,1-4.37-1.44,3.12,3.12,0,0,1-1.67-2.84,3.82,3.82,0,0,1,2.23-3.34c1.49-.87,3.9-1.3,7.25-1.3a32.08,32.08,0,0,1,7,.83,25.81,25.81,0,0,1,7.2,2.89l4.93-10.32a32.27,32.27,0,0,0-8.88-3.21A48.59,48.59,0,0,0,444.49,443a33.39,33.39,0,0,0-12.36,2,18.07,18.07,0,0,0-7.9,5.72,13.53,13.53,0,0,0-2.79,8.41,13.27,13.27,0,0,0,1.63,7,11.6,11.6,0,0,0,4.37,4.23,24.42,24.42,0,0,0,5.94,2.37,56,56,0,0,0,6.46,1.3q3.26.47,5.91.93a14.41,14.41,0,0,1,4.27,1.35,2.84,2.84,0,0,1,1.63,2.65,3.73,3.73,0,0,1-2.09,3.35c-1.4.8-3.77,1.21-7.11,1.21a33.35,33.35,0,0,1-9.25-1.35,36.81,36.81,0,0,1-8.23-3.39l-4.74,10.31a31.88,31.88,0,0,0,9.39,3.86,48.3,48.3,0,0,0,12.27,1.53,35.38,35.38,0,0,0,12.78-2,18.34,18.34,0,0,0,8-5.62,12.9,12.9,0,0,0,2.79-8.14A13.29,13.29,0,0,0,463.87,471.69Z" transform="translate(-80 -87.5)"/><polygon class="cls-3" points="394.28 352.03 394.28 366.08 426.37 380.03 394.28 393.97 394.28 408.03 440 387.46 440 372.6 394.28 352.03"/><polygon class="cls-3" points="0 387.46 45.72 408.03 45.72 393.97 13.63 380.03 45.72 366.08 45.72 352.03 0 372.6 0 387.46"/></svg>