<svg id="Layer_1" data-name="Layer 1" xmlns="http://www.w3.org/2000/svg" viewBox="0 0 440 83.03"><defs><style>.cls-1{fill:#1a1a1a;}</style></defs><title>Mambo Logo 2</title><path class="cls-1" d="M423.83,491.14h4.43v4.43h-4.43Zm18-31.55H428.29v-4.5h18v40.52h-4.5v4.5H428.29v-4.5H441.8Zm0-13.5h4.5v4.5h-4.5Z" transform="translate(-80 -423.47)"/><path class="cls-1" d="M457.14,455.09h18v4.5h4.53v4.54h-4.53v-4.54h-18v9h18v4.51h4.5v9h-4.5v4.5h-18v-4.5h18v-9h-18v-4.51h-4.5v-9h4.5Zm-4.5,22.54h4.54v4.43h-4.54Z" transform="translate(-80 -423.47)"/><rect class="cls-1" x="337.48" y="55.51" width="6.34" height="6.34"/><path class="cls-1" d="M227,446.11l-24.28-.06v7.49h-7.31V463h9.31v-7.48l20.28,0v12.79H195.22v7.49h-7.31v16.79h7.31v7.48h24.27v-7.48H225v7.48h9.48V453.59H227Zm-9.49,44.55H197.22V477.87H225v5.48h-7.49Z" transform="translate(-80 -423.47)"/><polygon class="cls-1" points="209.91 22.64 193.12 22.64 193.12 30.12 187.64 30.12 187.64 22.64 163.37 22.64 163.37 76.67 172.85 76.67 172.85 32.12 185.64 32.12 185.64 76.67 195.12 76.67 195.12 32.12 207.91 32.12 207.91 76.67 217.4 76.67 217.4 30.12 209.91 30.12 209.91 22.64"/><path class="cls-1" d="M343.83,446.11H319.56v7.48h-5.49V423.84h-9.31v76.3h39.07v-7.48h7.48V453.59h-7.48Zm-2,44.55H314.07V463.08h7.49v-7.49h20.27Z" transform="translate(-80 -423.47)"/><path class="cls-1" d="M401.29,453.59v-7.42h-31.7v7.42h-7.43v39.13h7.43v7.42h31.7v-7.42h7.42V453.59Zm-2,37.13h-27.7V455.59h27.7Z" transform="translate(-80 -423.47)"/><polygon class="cls-1" points="70.5 22.89 45.48 22.89 45.48 55.23 50.25 55.23 50.28 62.48 55.85 62.48 55.85 33.27 67.45 33.27 67.45 66.21 77.82 66.21 77.82 33.27 88.8 33.27 88.8 76.58 99.17 76.58 99.17 30.21 91.85 30.21 91.85 22.89 74.77 22.89 74.77 30.21 70.5 30.21 70.5 22.89"/><rect class="cls-1" x="19.01" width="12" height="7"/><rect class="cls-1" x="19.01" y="76.03" width="12" height="7"/><rect class="cls-1" y="38.02" width="12" height="7"/><rect class="cls-1" x="12" y="7" width="7" height="31.01"/><rect class="cls-1" x="12" y="45.02" width="7" height="31.01"/><rect class="cls-1" x="408.99" width="12" height="7"/><rect class="cls-1" x="408.99" y="76.03" width="12" height="7"/><rect class="cls-1" x="428" y="38.02" width="12" height="7"/><rect class="cls-1" x="420.99" y="7" width="7" height="31.01"/><rect class="cls-1" x="420.99" y="45.02" width="7" height="31.01"/></svg>