<svg id="Layer_1" data-name="Layer 1" xmlns="http://www.w3.org/2000/svg" viewBox="0 0 440 413.01"><defs><style>.cls-1{fill:#1a1a1a;}</style></defs><title>Mambo Logo 1</title><polygon class="cls-1" points="207.32 0 62.89 0 62.89 186.71 90.42 186.71 90.61 228.57 122.77 228.57 122.77 59.89 189.71 59.89 189.71 250.11 249.59 250.11 249.59 59.89 313 59.89 313 310 372.89 310 372.89 42.27 330.61 42.27 330.61 0 231.98 0 231.98 42.27 207.32 42.27 207.32 0"/><path class="cls-1" d="M423.83,491.14h4.43v4.43h-4.43Zm18-31.55H428.29v-4.5h18v40.52h-4.5v4.5H428.29v-4.5H441.8Zm0-13.5h4.5v4.5h-4.5Z" transform="translate(-80 -93.49)"/><path class="cls-1" d="M457.14,455.09h18v4.5h4.53v4.54h-4.53v-4.54h-18v9h18v4.51h4.5v9h-4.5v4.5h-18v-4.5h18v-9h-18v-4.51h-4.5v-9h4.5Zm-4.5,22.54h4.54v4.43h-4.54Z" transform="translate(-80 -93.49)"/><rect class="cls-1" x="337.48" y="385.49" width="6.34" height="6.34"/><path class="cls-1" d="M227,446.11l-24.28-.06v7.49h-7.31V463h9.31v-7.48l20.28,0v12.79H195.22v7.49h-7.31v16.79h7.31v7.48h24.27v-7.48H225v7.48h9.48V453.59H227Zm-9.49,44.55H197.22V477.87H225v5.48h-7.49Z" transform="translate(-80 -93.49)"/><polygon class="cls-1" points="209.91 352.62 193.12 352.62 193.12 360.1 187.64 360.1 187.64 352.62 163.37 352.62 163.37 406.65 172.85 406.65 172.85 362.1 185.64 362.1 185.64 406.65 195.12 406.65 195.12 362.1 207.91 362.1 207.91 406.65 217.4 406.65 217.4 360.1 209.91 360.1 209.91 352.62"/><path class="cls-1" d="M343.83,446.11H319.56v7.48h-5.49V423.84h-9.31v76.3h39.07v-7.48h7.48V453.59h-7.48Zm-2,44.55H314.07V463.08h7.49v-7.49h20.27Z" transform="translate(-80 -93.49)"/><path class="cls-1" d="M401.29,453.59v-7.42h-31.7v7.42h-7.43v39.13h7.43v7.42h31.7v-7.42h7.42V453.59Zm-2,37.13h-27.7V455.59h27.7Z" transform="translate(-80 -93.49)"/><polygon class="cls-1" points="70.5 352.87 45.48 352.87 45.48 385.21 50.25 385.21 50.28 392.46 55.85 392.46 55.85 363.24 67.45 363.24 67.45 396.19 77.82 396.19 77.82 363.24 88.8 363.24 88.8 406.56 99.17 406.56 99.17 360.19 91.85 360.19 91.85 352.87 74.77 352.87 74.77 360.19 70.5 360.19 70.5 352.87"/><rect class="cls-1" x="19.01" y="329.98" width="12" height="7"/><rect class="cls-1" x="19.01" y="406.01" width="12" height="7"/><rect class="cls-1" y="367.99" width="12" height="7"/><rect class="cls-1" x="12" y="336.98" width="7" height="31.01"/><rect class="cls-1" x="12" y="375" width="7" height="31.01"/><rect class="cls-1" x="408.99" y="329.98" width="12" height="7"/><rect class="cls-1" x="408.99" y="406.01" width="12" height="7"/><rect class="cls-1" x="428" y="367.99" width="12" height="7"/><rect class="cls-1" x="420.99" y="336.98" width="7" height="31.01"/><rect class="cls-1" x="420.99" y="375" width="7" height="31.01"/></svg>