<svg id="Layer_4" data-name="Layer 4" xmlns="http://www.w3.org/2000/svg" viewBox="0 0 440 83.03"><defs><style>.cls-1{fill:#fff;}</style></defs><title>mambo-logo-white</title><path class="cls-1" d="M2395.11,499.75h4.43v4.43h-4.43Zm18-31.55h-13.51v-4.5h18v40.52h-4.5v4.5h-13.51v-4.5h13.51Zm0-13.5h4.5v4.5h-4.5Z" transform="translate(-2051.28 -429.08)"/><path class="cls-1" d="M2428.42,463.7h18v4.5H2451v4.54h-4.53V468.2h-18v9h18v4.51h4.5v9h-4.5v4.5h-18v-4.5h18v-9h-18V477.2h-4.5v-9h4.5Zm-4.5,22.54h4.53v4.44h-4.53Z" transform="translate(-2051.28 -429.08)"/><path class="cls-1" d="M2198.26,454.72l-24.28-.06v7.49h-7.31v9.48H2176v-7.48l20.28.05V477H2166.5v7.48h-7.31v16.79h7.31v7.48h24.27v-7.48h5.49v7.48h9.48V462.2h-7.48Zm-9.49,44.55H2168.5V486.48h27.76V492h-7.49Z" transform="translate(-2051.28 -429.08)"/><polygon class="cls-1" points="209.91 25.64 193.12 25.64 193.12 33.12 187.64 33.12 187.64 25.64 163.37 25.64 163.37 79.67 172.85 79.67 172.85 35.12 185.64 35.12 185.64 79.67 195.12 79.67 195.12 35.12 207.91 35.12 207.91 79.67 217.4 79.67 217.4 33.12 209.91 33.12 209.91 25.64"/><path class="cls-1" d="M2315.11,454.72h-24.27v7.48h-5.49V432.45H2276v76.3h39.07v-7.48h7.48V462.2h-7.48Zm-2,44.55h-27.76V471.69h7.49V464.2h20.27Z" transform="translate(-2051.28 -429.08)"/><path class="cls-1" d="M2372.57,462.2v-7.42h-31.7v7.42h-7.43v39.13h7.43v7.42h31.7v-7.42H2380V462.2Zm-2,37.13h-27.7V464.2h27.7Z" transform="translate(-2051.28 -429.08)"/><polygon class="cls-1" points="70.5 25.89 45.48 25.89 45.48 58.23 50.25 58.23 50.28 65.48 55.85 65.48 55.85 36.27 67.45 36.27 67.45 69.21 77.82 69.21 77.82 36.27 88.8 36.27 88.8 79.58 99.17 79.58 99.17 33.21 91.85 33.21 91.85 25.89 74.77 25.89 74.77 33.21 70.5 33.21 70.5 25.89"/><rect class="cls-1" x="19.01" width="12" height="7"/><rect class="cls-1" x="19.01" y="76.03" width="12" height="7"/><rect class="cls-1" y="38.02" width="12" height="7"/><rect class="cls-1" x="12" y="7" width="7" height="31.01"/><rect class="cls-1" x="12" y="45.02" width="7" height="31.01"/><rect class="cls-1" x="408.99" width="12" height="7"/><rect class="cls-1" x="408.99" y="76.03" width="12" height="7"/><rect class="cls-1" x="428" y="38.02" width="12" height="7"/><rect class="cls-1" x="420.99" y="7" width="7" height="31.01"/><rect class="cls-1" x="420.99" y="45.02" width="7" height="31.01"/></svg>