<svg id="Layer_2" data-name="Layer 2" xmlns="http://www.w3.org/2000/svg" viewBox="0 0 522.05 151.32"><defs><style>.cls-1{fill:#404041;}.cls-2{fill:#5a000a;}.cls-3{fill:#870014;}</style></defs><title>Dom Logo 2</title><path class="cls-1" d="M659,326.78,691.52,289,659,251.34l15.43-27.07h42.51a64.72,64.72,0,1,1,0,129.43H674.78ZM732.83,289l-33.64,37.49h17.72a37.51,37.51,0,1,0,0-75l-18.07-.14Z" transform="translate(-658.97 -224.27)"/><polygon class="cls-2" points="40.22 102.21 15.8 129.43 49.91 102.22 40.22 102.21"/><polygon class="cls-2" points="49.91 27.15 39.87 27.07 15.42 0 49.91 27.15"/><polyline class="cls-3" points="15.42 0 73.85 64.72 15.8 129.43 0 102.51 32.55 64.72 0 27.07 15.42 0"/><path class="cls-1" d="M851,278.58a43.85,43.85,0,0,0-20.83-4.83,43.15,43.15,0,0,0-20.63,4.83,36.3,36.3,0,0,0-14.23,13.34,37.28,37.28,0,0,0,14.23,52.36,42.73,42.73,0,0,0,20.63,4.9,43.41,43.41,0,0,0,20.83-4.9,38.05,38.05,0,0,0,14.3-52.36A36.22,36.22,0,0,0,851,278.58Zm-4.56,43.78a17.51,17.51,0,0,1-6.67,7,20.15,20.15,0,0,1-19,0,17.4,17.4,0,0,1-6.74-7,22.47,22.47,0,0,1-2.52-10.9A22,22,0,0,1,814,300.57a17.57,17.57,0,0,1,6.74-6.88,19.18,19.18,0,0,1,9.54-2.38,18.75,18.75,0,0,1,9.46,2.38,17.68,17.68,0,0,1,6.67,6.88A22,22,0,0,1,849,311.46,22.47,22.47,0,0,1,846.43,322.36Z" transform="translate(-658.97 -224.27)"/><path class="cls-1" d="M993.89,277.22a33.25,33.25,0,0,0-15.46-3.47,34,34,0,0,0-18.65,5.1,31.08,31.08,0,0,0-7.71,6.9,22.28,22.28,0,0,0-6.59-6.9,31.07,31.07,0,0,0-17.7-5.1,32.56,32.56,0,0,0-15.93,3.88,25.08,25.08,0,0,0-6.94,5.6v-8.39H884.62v73.25h21.24V311.33a24.66,24.66,0,0,1,2-10.83,14.35,14.35,0,0,1,5.72-6.26,16.35,16.35,0,0,1,8.31-2.11q6.81,0,10.41,4.22T936,309.42v38.67h21.24V311.33a25.31,25.31,0,0,1,2-10.83,13.86,13.86,0,0,1,5.65-6.26,16.6,16.6,0,0,1,8.44-2.11q6.54,0,10.14,4.22T987,309.42v38.67h21.24V306.15q0-11.16-3.81-18.31A24.54,24.54,0,0,0,993.89,277.22Z" transform="translate(-658.97 -224.27)"/><rect class="cls-1" x="365.75" y="76.98" width="38.53" height="17.02"/><path class="cls-1" d="M1080.82,348c0,3.72-.75,6.45-2.25,8.17a8,8,0,0,1-6.33,2.59,15.26,15.26,0,0,1-9-2.59l-5.72,15.39a23.34,23.34,0,0,0,7.63,3.06,43,43,0,0,0,9.53,1q13.08,0,20.22-7.49t7.15-20.28v-73h-21.24Z" transform="translate(-658.97 -224.27)"/><path class="cls-1" d="M1101,244.13a14.29,14.29,0,0,0-9.6-3.2,13.66,13.66,0,0,0-9.67,3.41,11.52,11.52,0,0,0,0,16.88,13.66,13.66,0,0,0,9.67,3.41,13.47,13.47,0,0,0,9.66-3.48,11.56,11.56,0,0,0,3.68-8.78A10.37,10.37,0,0,0,1101,244.13Z" transform="translate(-658.97 -224.27)"/><path class="cls-1" d="M1178.64,315.82a17.2,17.2,0,0,0-6.39-6.2,37.71,37.71,0,0,0-8.65-3.47,83,83,0,0,0-9.39-1.9q-4.77-.69-8.72-1.36a19.28,19.28,0,0,1-6.4-2.12,4.54,4.54,0,0,1-2.45-4.15c0-2,1.09-3.63,3.27-4.9s5.72-1.91,10.62-1.91a46.14,46.14,0,0,1,10.28,1.23,37.82,37.82,0,0,1,10.55,4.22l7.22-15.11a47.33,47.33,0,0,0-13-4.7,70.36,70.36,0,0,0-15.31-1.7,48.94,48.94,0,0,0-18.11,3,26.44,26.44,0,0,0-11.58,8.38,19.82,19.82,0,0,0-4.08,12.32,19.51,19.51,0,0,0,2.38,10.21,17.15,17.15,0,0,0,6.4,6.2,37.18,37.18,0,0,0,8.72,3.47,85.61,85.61,0,0,0,9.46,1.9c3.17.46,6.06.91,8.64,1.36a21.05,21.05,0,0,1,6.27,2,4.18,4.18,0,0,1,2.38,3.88,5.44,5.44,0,0,1-3.06,4.9q-3.08,1.77-10.42,1.77a49.19,49.19,0,0,1-13.55-2,53.54,53.54,0,0,1-12-5l-6.94,15.11a46.68,46.68,0,0,0,13.75,5.65,70.56,70.56,0,0,0,18,2.25q11,0,18.73-3a26.8,26.8,0,0,0,11.77-8.23A18.86,18.86,0,0,0,1181,326,19.53,19.53,0,0,0,1178.64,315.82Z" transform="translate(-658.97 -224.27)"/></svg>