<svg id="Layer_6" data-name="Layer 6" xmlns="http://www.w3.org/2000/svg" viewBox="0 0 522.05 151.32"><defs><style>.cls-1{fill:#bebebe;}.cls-2{fill:#f5f5f5;}.cls-3{fill:#e1e1e1;}</style></defs><title>dom-logo-white</title><path class="cls-1" d="M659,960.11l32.55-37.79L659,884.68,674.4,857.6h42.51a64.72,64.72,0,1,1,0,129.43H674.78Zm73.86-37.79-33.64,37.49h17.72a37.51,37.51,0,1,0,0-75l-18.07-.13Z" transform="translate(-658.97 -857.6)"/><polygon class="cls-2" points="40.22 102.21 15.8 129.43 49.91 102.22 40.22 102.21"/><polygon class="cls-2" points="49.91 27.15 39.87 27.07 15.42 0 49.91 27.15"/><polyline class="cls-3" points="15.42 0 73.85 64.72 15.8 129.43 0 102.51 32.55 64.72 0 27.07 15.42 0"/><path class="cls-1" d="M851,911.91a43.85,43.85,0,0,0-20.83-4.83,43.15,43.15,0,0,0-20.63,4.83,36.4,36.4,0,0,0-14.23,13.35,37.27,37.27,0,0,0,14.23,52.35,42.61,42.61,0,0,0,20.63,4.9,43.3,43.3,0,0,0,20.83-4.9,38,38,0,0,0,14.3-52.35A36.32,36.32,0,0,0,851,911.91Zm-4.56,43.78a17.51,17.51,0,0,1-6.67,7,20.15,20.15,0,0,1-19,0,17.4,17.4,0,0,1-6.74-7,22.46,22.46,0,0,1-2.52-10.89A22,22,0,0,1,814,933.9a17.61,17.61,0,0,1,6.74-6.87,19.08,19.08,0,0,1,9.54-2.38,18.65,18.65,0,0,1,9.46,2.38,17.72,17.72,0,0,1,6.67,6.87A22,22,0,0,1,849,944.8,22.46,22.46,0,0,1,846.43,955.69Z" transform="translate(-658.97 -857.6)"/><path class="cls-1" d="M993.89,910.55a33.37,33.37,0,0,0-15.46-3.47,34,34,0,0,0-18.65,5.11,30.85,30.85,0,0,0-7.71,6.89,22.14,22.14,0,0,0-6.59-6.89,31,31,0,0,0-17.7-5.11A32.56,32.56,0,0,0,911.85,911a25.08,25.08,0,0,0-6.94,5.6v-8.39H884.62v73.25h21.24V944.66a24.66,24.66,0,0,1,2-10.83,14.35,14.35,0,0,1,5.72-6.26,16.45,16.45,0,0,1,8.31-2.11q6.81,0,10.41,4.22T936,942.75v38.67h21.24V944.66a25.31,25.31,0,0,1,2-10.83,13.86,13.86,0,0,1,5.65-6.26,16.7,16.7,0,0,1,8.44-2.11q6.54,0,10.14,4.22T987,942.75v38.67h21.24V939.49q0-11.18-3.81-18.32A24.65,24.65,0,0,0,993.89,910.55Z" transform="translate(-658.97 -857.6)"/><rect class="cls-1" x="365.75" y="76.98" width="38.53" height="17.02"/><path class="cls-1" d="M1080.82,981.29q0,5.58-2.25,8.16a7.93,7.93,0,0,1-6.33,2.59,15.19,15.19,0,0,1-9-2.59l-5.72,15.39a23.34,23.34,0,0,0,7.63,3.06,43,43,0,0,0,9.53,1q13.08,0,20.22-7.48t7.15-20.29v-73h-21.24Z" transform="translate(-658.97 -857.6)"/><path class="cls-1" d="M1101,877.47a14.29,14.29,0,0,0-9.6-3.2,13.65,13.65,0,0,0-9.67,3.4,11.52,11.52,0,0,0,0,16.88,13.66,13.66,0,0,0,9.67,3.41,13.51,13.51,0,0,0,9.66-3.47,11.59,11.59,0,0,0,3.68-8.79A10.35,10.35,0,0,0,1101,877.47Z" transform="translate(-658.97 -857.6)"/><path class="cls-1" d="M1178.64,949.15a17.17,17.17,0,0,0-6.39-6.19,36.83,36.83,0,0,0-8.65-3.47,80.93,80.93,0,0,0-9.39-1.91c-3.18-.45-6.09-.91-8.72-1.36a19.52,19.52,0,0,1-6.4-2.11,4.55,4.55,0,0,1-2.45-4.16q0-3,3.27-4.9t10.62-1.9a46.7,46.7,0,0,1,10.28,1.22,38.13,38.13,0,0,1,10.55,4.22l7.22-15.11a47.33,47.33,0,0,0-13-4.7,71,71,0,0,0-15.31-1.7,48.72,48.72,0,0,0-18.11,3,26.42,26.42,0,0,0-11.58,8.37,19.84,19.84,0,0,0-4.08,12.32,19.51,19.51,0,0,0,2.38,10.21,17.08,17.08,0,0,0,6.4,6.2,36.76,36.76,0,0,0,8.72,3.47,85.65,85.65,0,0,0,9.46,1.91c3.17.45,6.06.91,8.64,1.36a20.78,20.78,0,0,1,6.27,2,4.19,4.19,0,0,1,2.38,3.88,5.45,5.45,0,0,1-3.06,4.91q-3.08,1.77-10.42,1.76a48.82,48.82,0,0,1-13.55-2,53.09,53.09,0,0,1-12-5l-6.94,15.11a46.67,46.67,0,0,0,13.75,5.66,71,71,0,0,0,18,2.24q11,0,18.73-3a26.9,26.9,0,0,0,11.77-8.24,18.84,18.84,0,0,0,4.09-11.92A19.56,19.56,0,0,0,1178.64,949.15Z" transform="translate(-658.97 -857.6)"/></svg>