<svg id="Layer_7" data-name="Layer 7" xmlns="http://www.w3.org/2000/svg" viewBox="0 0 440 424.99"><defs><style>.cls-1{fill:#bebebe;}.cls-2{fill:#f5f5f5;}.cls-3{fill:#e1e1e1;}</style></defs><title>dom-isotype-white</title><path class="cls-1" d="M150,971.56l79.62-92.44L150,787.05l37.72-66.21h104a158.29,158.29,0,1,1,0,316.57H188.65Zm180.64-92.44-82.27,91.71,43.34,0a91.73,91.73,0,1,0,0-183.46l-44.2-.34Z" transform="translate(-80 -720.84)"/><polygon class="cls-2" points="168.37 249.99 108.65 316.57 192.08 250.02 168.37 249.99"/><polygon class="cls-2" points="192.08 66.4 167.51 66.21 107.72 0 192.08 66.4"/><polyline class="cls-3" points="107.72 0 250.64 158.28 108.65 316.57 70 250.72 149.62 158.28 70 66.21 107.72 0"/><path class="cls-1" d="M174.38,1082.28a17.08,17.08,0,0,0-3.91-3.19,21.41,21.41,0,0,0-11.06-2.79,25.37,25.37,0,0,0-12.73,3.21,23.26,23.26,0,0,0-8.93,9,30,30,0,0,0,0,27.14,23.26,23.26,0,0,0,8.93,9,25.37,25.37,0,0,0,12.73,3.21,22.06,22.06,0,0,0,11.29-2.74,15.86,15.86,0,0,0,4.33-3.73v5.72h13.85v-69h-14.5Zm-1.44,27.21a11.88,11.88,0,0,1-4.61,4.78,12.94,12.94,0,0,1-6.5,1.63,12.77,12.77,0,0,1-6.42-1.63,11.85,11.85,0,0,1-4.6-4.78,15.43,15.43,0,0,1-1.72-7.44,15.1,15.1,0,0,1,1.72-7.44,12,12,0,0,1,4.6-4.69,12.87,12.87,0,0,1,6.42-1.63,13,13,0,0,1,6.5,1.63,12,12,0,0,1,4.61,4.69,15.1,15.1,0,0,1,1.72,7.44A15.43,15.43,0,0,1,172.94,1109.49Z" transform="translate(-80 -720.84)"/><path class="cls-1" d="M240.19,1079.6a30,30,0,0,0-14.23-3.3,29.44,29.44,0,0,0-14.08,3.3,24.78,24.78,0,0,0-9.71,9.11,25.44,25.44,0,0,0,9.71,35.74A29.12,29.12,0,0,0,226,1127.8a29.64,29.64,0,0,0,14.23-3.35,26,26,0,0,0,9.76-35.74A24.78,24.78,0,0,0,240.19,1079.6Zm-3.12,29.89a11.94,11.94,0,0,1-4.55,4.78,12.9,12.9,0,0,1-6.56,1.63,12.76,12.76,0,0,1-6.41-1.63,11.85,11.85,0,0,1-4.6-4.78,15.31,15.31,0,0,1-1.72-7.44,15,15,0,0,1,1.72-7.44,12,12,0,0,1,4.6-4.69,13.05,13.05,0,0,1,6.51-1.63,12.81,12.81,0,0,1,6.46,1.63,12.09,12.09,0,0,1,4.55,4.69,15,15,0,0,1,1.72,7.44A15.31,15.31,0,0,1,237.07,1109.49Z" transform="translate(-80 -720.84)"/><path class="cls-1" d="M337.74,1078.67a22.71,22.71,0,0,0-10.55-2.37,23.16,23.16,0,0,0-12.73,3.49,21.14,21.14,0,0,0-5.27,4.7,15,15,0,0,0-4.49-4.7,21.19,21.19,0,0,0-12.09-3.49,22.17,22.17,0,0,0-10.87,2.65,17.18,17.18,0,0,0-4.74,3.82v-5.72H263.15v50h14.5V1102a16.79,16.79,0,0,1,1.39-7.39,9.74,9.74,0,0,1,3.9-4.28,11.22,11.22,0,0,1,5.67-1.44,8.87,8.87,0,0,1,7.12,2.88c1.64,1.92,2.46,4.9,2.46,8.92v26.4h14.5V1102a17.27,17.27,0,0,1,1.35-7.39,9.41,9.41,0,0,1,3.85-4.28,11.41,11.41,0,0,1,5.77-1.44,8.61,8.61,0,0,1,6.92,2.88c1.64,1.92,2.47,4.9,2.47,8.92v26.4h14.5v-28.63q0-7.62-2.61-12.5A16.75,16.75,0,0,0,337.74,1078.67Z" transform="translate(-80 -720.84)"/><rect class="cls-1" x="278.79" y="374.24" width="26.31" height="11.62"/><path class="cls-1" d="M397.09,1127q0,3.81-1.54,5.58a5.43,5.43,0,0,1-4.32,1.76,10.41,10.41,0,0,1-6.13-1.76l-3.91,10.5a15.83,15.83,0,0,0,5.21,2.09,28.91,28.91,0,0,0,6.5.7q8.93,0,13.81-5.11t4.88-13.85v-49.82h-14.5Z" transform="translate(-80 -720.84)"/><path class="cls-1" d="M410.89,1056.08a9.75,9.75,0,0,0-6.55-2.18,9.36,9.36,0,0,0-6.6,2.32,7.88,7.88,0,0,0,0,11.53,10.46,10.46,0,0,0,13.2,0,7.9,7.9,0,0,0,2.51-6A7.07,7.07,0,0,0,410.89,1056.08Z" transform="translate(-80 -720.84)"/><path class="cls-1" d="M463.87,1105a11.8,11.8,0,0,0-4.36-4.23,25.54,25.54,0,0,0-5.91-2.37,57.74,57.74,0,0,0-6.41-1.3q-3.26-.46-5.95-.93a13.17,13.17,0,0,1-4.37-1.44,3.1,3.1,0,0,1-1.67-2.83,3.82,3.82,0,0,1,2.23-3.35c1.49-.87,3.9-1.3,7.25-1.3a31.51,31.51,0,0,1,7,.84,25.77,25.77,0,0,1,7.2,2.88l4.93-10.32a32.6,32.6,0,0,0-8.88-3.21,48.59,48.59,0,0,0-10.46-1.16,33.17,33.17,0,0,0-12.36,2,18.06,18.06,0,0,0-7.9,5.71,13.55,13.55,0,0,0-2.79,8.41,13.31,13.31,0,0,0,1.63,7,11.75,11.75,0,0,0,4.37,4.23,25.25,25.25,0,0,0,5.94,2.37,60.55,60.55,0,0,0,6.46,1.3q3.26.47,5.91.93a14.43,14.43,0,0,1,4.27,1.34,2.85,2.85,0,0,1,1.63,2.65,3.71,3.71,0,0,1-2.09,3.35q-2.1,1.22-7.11,1.21a33.35,33.35,0,0,1-9.25-1.35,36.81,36.81,0,0,1-8.23-3.39l-4.74,10.32a31.89,31.89,0,0,0,9.39,3.85,47.86,47.86,0,0,0,12.27,1.54,35.15,35.15,0,0,0,12.78-2,18.34,18.34,0,0,0,8-5.62,12.89,12.89,0,0,0,2.79-8.13A13.33,13.33,0,0,0,463.87,1105Z" transform="translate(-80 -720.84)"/><polygon class="cls-3" points="394.28 352.03 394.28 366.08 426.37 380.03 394.28 393.97 394.28 408.03 440 387.46 440 372.6 394.28 352.03"/><polygon class="cls-3" points="0 387.46 45.72 408.03 45.72 393.97 13.63 380.03 45.72 366.08 45.72 352.03 0 372.6 0 387.46"/></svg>