<svg id="Layer_4" data-name="Layer 4" xmlns="http://www.w3.org/2000/svg" viewBox="0 0 426.45 450"><defs><style>.cls-1{fill:#404041;}.cls-2{fill:#5a000a;}.cls-3{fill:#870014;}</style></defs><title>Dom Logo 3</title><path class="cls-1" d="M1326.78,431.4,1440,300,1326.78,169.12,1380.4,75h147.82c124.27,0,225,100.74,225,225s-100.73,225-225,225h-146.5ZM1583.55,300,1466.61,430.36l61.61,0a130.4,130.4,0,0,0,0-260.8l-62.84-.48Z" transform="translate(-1326.78 -75)"/><polygon class="cls-2" points="139.84 355.36 54.94 450 173.53 355.4 139.84 355.36"/><polygon class="cls-2" points="173.53 94.39 138.61 94.12 53.62 0 173.53 94.39"/><polyline class="cls-3" points="53.62 0 256.77 225 54.94 450 0 356.4 113.18 225 0 94.12 53.62 0"/></svg>