<svg id="Layer_2" data-name="Layer 2" xmlns="http://www.w3.org/2000/svg" viewBox="0 0 440 424.53"><defs><style>.cls-1{fill:#3ba9d7;}</style></defs><title>mambo-isotype-blue</title><polygon class="cls-1" points="207.32 0 62.89 0 62.89 186.71 90.42 186.71 90.61 228.57 122.77 228.57 122.77 59.89 189.71 59.89 189.71 250.11 249.59 250.11 249.59 59.89 313 59.89 313 310 372.89 310 372.89 42.27 330.61 42.27 330.61 0 231.98 0 231.98 42.27 207.32 42.27 207.32 0"/><path class="cls-1" d="M1078.53,499.75H1083v4.43h-4.44Zm18-31.55H1083v-4.5h18v40.52h-4.5v4.5H1083v-4.5h13.51Zm0-13.5h4.5v4.5h-4.5Z" transform="translate(-734.71 -87.59)"/><path class="cls-1" d="M1111.85,463.7h18v4.5h4.53v4.54h-4.53V468.2h-18v9h18v4.51h4.5v9h-4.5v4.5h-18v-4.5h18v-9h-18V477.2h-4.5v-9h4.5Zm-4.5,22.54h4.53v4.44h-4.53Z" transform="translate(-734.71 -87.59)"/><path class="cls-1" d="M881.69,454.72l-24.28-.06v7.49H850.1v9.48h9.31v-7.48l20.27.05V477H849.93v7.48h-7.31v16.79h7.31v7.48H874.2v-7.48h5.48v7.48h9.49V462.2h-7.48Zm-9.49,44.55H851.93V486.48h27.75V492H872.2Z" transform="translate(-734.71 -87.59)"/><polygon class="cls-1" points="209.91 367.13 193.12 367.13 193.12 374.61 187.64 374.61 187.64 367.13 163.37 367.13 163.37 421.16 172.85 421.16 172.85 376.61 185.64 376.61 185.64 421.16 195.12 421.16 195.12 376.61 207.91 376.61 207.91 421.16 217.4 421.16 217.4 374.61 209.91 374.61 209.91 367.13"/><path class="cls-1" d="M998.54,454.72H974.26v7.48h-5.48V432.45h-9.31v76.3h39.07v-7.48H1006V462.2h-7.48Zm-2,44.55H968.78V471.69h7.48V464.2h20.28Z" transform="translate(-734.71 -87.59)"/><path class="cls-1" d="M1056,462.2v-7.42h-31.7v7.42h-7.43v39.13h7.43v7.42H1056v-7.42h7.42V462.2Zm-2,37.13H1026.3V464.2H1054Z" transform="translate(-734.71 -87.59)"/><polygon class="cls-1" points="70.5 367.39 45.48 367.39 45.48 399.72 50.25 399.72 50.28 406.97 55.85 406.97 55.85 377.76 67.45 377.76 67.45 410.7 77.82 410.7 77.82 377.76 88.8 377.76 88.8 421.07 99.17 421.07 99.17 374.71 91.85 374.71 91.85 367.39 74.77 367.39 74.77 374.71 70.5 374.71 70.5 367.39"/><rect class="cls-1" x="19.01" y="341.49" width="12" height="7"/><rect class="cls-1" x="19.01" y="417.52" width="12" height="7"/><rect class="cls-1" y="379.51" width="12" height="7"/><rect class="cls-1" x="12" y="348.5" width="7" height="31.01"/><rect class="cls-1" x="12" y="386.51" width="7" height="31.01"/><rect class="cls-1" x="408.99" y="341.49" width="12" height="7"/><rect class="cls-1" x="408.99" y="417.52" width="12" height="7"/><rect class="cls-1" x="428" y="379.51" width="12" height="7"/><rect class="cls-1" x="420.99" y="348.5" width="7" height="31.01"/><rect class="cls-1" x="420.99" y="386.51" width="7" height="31.01"/></svg>