<svg id="Layer_2" data-name="Layer 2" xmlns="http://www.w3.org/2000/svg" viewBox="0 0 440 83.03"><defs><style>.cls-1{fill:#3ba9d7;}</style></defs><title>mambo-logo-blue</title><path class="cls-1" d="M1078.53,499.75H1083v4.43h-4.44Zm18-31.55H1083v-4.5h18v40.52h-4.5v4.5H1083v-4.5h13.51Zm0-13.5h4.5v4.5h-4.5Z" transform="translate(-734.71 -429.08)"/><path class="cls-1" d="M1111.85,463.7h18v4.5h4.53v4.54h-4.53V468.2h-18v9h18v4.51h4.5v9h-4.5v4.5h-18v-4.5h18v-9h-18V477.2h-4.5v-9h4.5Zm-4.5,22.54h4.53v4.44h-4.53Z" transform="translate(-734.71 -429.08)"/><path class="cls-1" d="M881.69,454.72l-24.28-.06v7.49H850.1v9.48h9.31v-7.48l20.27.05V477H849.93v7.48h-7.31v16.79h7.31v7.48H874.2v-7.48h5.48v7.48h9.49V462.2h-7.48Zm-9.49,44.55H851.93V486.48h27.75V492H872.2Z" transform="translate(-734.71 -429.08)"/><polygon class="cls-1" points="209.91 25.64 193.12 25.64 193.12 33.12 187.64 33.12 187.64 25.64 163.37 25.64 163.37 79.67 172.85 79.67 172.85 35.12 185.64 35.12 185.64 79.67 195.12 79.67 195.12 35.12 207.91 35.12 207.91 79.67 217.4 79.67 217.4 33.12 209.91 33.12 209.91 25.64"/><path class="cls-1" d="M998.54,454.72H974.26v7.48h-5.48V432.45h-9.31v76.3h39.07v-7.48H1006V462.2h-7.48Zm-2,44.55H968.78V471.69h7.48V464.2h20.28Z" transform="translate(-734.71 -429.08)"/><path class="cls-1" d="M1056,462.2v-7.42h-31.7v7.42h-7.43v39.13h7.43v7.42H1056v-7.42h7.42V462.2Zm-2,37.13H1026.3V464.2H1054Z" transform="translate(-734.71 -429.08)"/><polygon class="cls-1" points="70.5 25.89 45.48 25.89 45.48 58.23 50.25 58.23 50.28 65.48 55.85 65.48 55.85 36.27 67.45 36.27 67.45 69.21 77.82 69.21 77.82 36.27 88.8 36.27 88.8 79.58 99.17 79.58 99.17 33.21 91.85 33.21 91.85 25.89 74.77 25.89 74.77 33.21 70.5 33.21 70.5 25.89"/><rect class="cls-1" x="19.01" width="12" height="7"/><rect class="cls-1" x="19.01" y="76.03" width="12" height="7"/><rect class="cls-1" y="38.02" width="12" height="7"/><rect class="cls-1" x="12" y="7" width="7" height="31.01"/><rect class="cls-1" x="12" y="45.02" width="7" height="31.01"/><rect class="cls-1" x="408.99" width="12" height="7"/><rect class="cls-1" x="408.99" y="76.03" width="12" height="7"/><rect class="cls-1" x="428" y="38.02" width="12" height="7"/><rect class="cls-1" x="420.99" y="7" width="7" height="31.01"/><rect class="cls-1" x="420.99" y="45.02" width="7" height="31.01"/></svg>